<?xml version="1.0" encoding="UTF-8"?>
<svg id="Calque_1" data-name="Calque 1" xmlns="http://www.w3.org/2000/svg" xmlns:xlink="http://www.w3.org/1999/xlink" viewBox="0 0 500 500">
  <defs>
    <style>
      .cls-1 {
        fill: url(#Dégradé_sans_nom_207);
      }

      .cls-1, .cls-2, .cls-3, .cls-4, .cls-5 {
        stroke-width: 0px;
      }

      .cls-2 {
        fill: url(#Dégradé_sans_nom_229-2);
      }

      .cls-3 {
        fill: url(#Dégradé_sans_nom_229);
      }

      .cls-4 {
        fill: url(#Dégradé_sans_nom_231);
      }

      .cls-5 {
        fill: url(#Dégradé_sans_nom_236);
      }
    </style>
    <linearGradient id="Dégradé_sans_nom_229" data-name="Dégradé sans nom 229" x1="87.48" y1="318.85" x2="65.27" y2="131.42" gradientUnits="userSpaceOnUse">
      <stop offset="0" stop-color="#66bb93"/>
      <stop offset="1" stop-color="#8fcbb1"/>
    </linearGradient>
    <linearGradient id="Dégradé_sans_nom_207" data-name="Dégradé sans nom 207" x1="427.99" y1="131" x2="414.23" y2="429.63" gradientUnits="userSpaceOnUse">
      <stop offset="0" stop-color="#e889b6"/>
      <stop offset="1" stop-color="#e63187"/>
    </linearGradient>
    <linearGradient id="Dégradé_sans_nom_231" data-name="Dégradé sans nom 231" x1="96" y1="76.37" x2="253.79" y2="389.83" gradientUnits="userSpaceOnUse">
      <stop offset="0" stop-color="#66bb93"/>
      <stop offset=".56" stop-color="#37bce4"/>
    </linearGradient>
    <linearGradient id="Dégradé_sans_nom_236" data-name="Dégradé sans nom 236" x1="288" y1="327.22" x2="416.13" y2="82.6" gradientUnits="userSpaceOnUse">
      <stop offset=".06" stop-color="#88cfe7"/>
      <stop offset="1" stop-color="#e63187"/>
    </linearGradient>
    <linearGradient id="Dégradé_sans_nom_229-2" data-name="Dégradé sans nom 229" x1="37.8" y1="395.37" x2="123.27" y2="395.37" xlink:href="#Dégradé_sans_nom_229"/>
  </defs>
  <path class="cls-3" d="m126.05,235.11v47.37c0,25.01-20.48,45.56-45.56,45.56s-45.49-20.55-45.49-45.56V124.27c4.84-4.99,11.56-8.16,19.04-8.16,9.82,0,18.36,5.36,22.97,13.3.76,1.44,1.44,2.87,1.96,4.38l47.07,101.32Z"/>
  <path class="cls-1" d="m373.93,235.11v160.7c0,25.06,20.49,45.55,45.55,45.55,25.03,0,45.52-20.49,45.52-45.55V124.23c-4.82-4.98-11.58-8.09-19.05-8.09-9.82,0-18.38,5.33-22.95,13.29l-2,4.33-47.06,101.35Z"/>
  <path class="cls-4" d="m319.53,351.39l-16.81,35.91-.03.08c-5.44,9.42-12.23,17.86-21.54,23.95-6.93,4.52-15.48,7.23-23.68,8.2-.76.11-1.54.19-2.3.24-.87.08-1.76.14-2.63.16-.92.03-1.81.05-2.71.05-.81,0-1.6-.03-2.38-.05-.89-.03-1.76-.08-2.62-.16-.76-.05-1.54-.14-2.3-.24-12.12-1.43-23.08-6.58-31.85-14.18-7.04-6.09-12.37-14.59-16.24-22.98l-68.39-147.27-47.06-101.35c-.54-1.52-1.22-2.95-2-4.33-4.57-7.96-13.13-13.29-22.95-13.29-7.47,0-14.23,3.11-19.05,8.09v-14.34c0-24.3,20.03-42.95,42.43-48.87,20.57-5.44,43.3-1.3,60.92,10.47,11.47,7.66,20.68,18.48,26.49,30.99l85.17,183.38.14.3.03.08c3.92,8.44,7.93,16.81,11.66,25.33,3.63,8.23,7.5,16.51,13.37,23.41,5.28,6.22,12.1,11.07,19.62,14.18,3.82,1.57,7.82,2.71,11.91,3.36,3.98.62,8.8-1.19,12.8-1.11Z"/>
  <path class="cls-5" d="m465,109.89v14.34c-4.82-4.98-11.58-8.09-19.05-8.09-9.82,0-18.38,5.33-22.95,13.29-.78,1.38-1.46,2.81-2,4.33l-47.06,101.35-54.4,116.29c-4.01-.08-8.82,1.73-12.8,1.11-4.09-.65-8.09-1.79-11.91-3.36-7.52-3.11-14.34-7.96-19.62-14.18-5.87-6.9-9.74-15.18-13.37-23.41-3.73-8.52-7.74-16.89-11.66-25.33l-.03-.08,85-183.67c5.82-12.5,15.02-23.33,26.49-30.99,17.62-11.77,40.35-15.91,60.92-10.47,22.41,5.93,42.43,24.57,42.43,48.87Z"/>
  <circle class="cls-2" cx="80.54" cy="395.37" r="42.74"/>
</svg>