<?xml version="1.0" encoding="UTF-8"?>
<svg id="Calque_1" data-name="Calque 1" xmlns="http://www.w3.org/2000/svg" xmlns:xlink="http://www.w3.org/1999/xlink" viewBox="0 0 500 500">
  <defs>
    <style>
      .cls-1 {
        fill: url(#Dégradé_sans_nom_207);
      }

      .cls-1, .cls-2, .cls-3, .cls-4, .cls-5, .cls-6 {
        stroke-width: 0px;
      }

      .cls-2 {
        fill: url(#Dégradé_sans_nom_229-2);
      }

      .cls-3 {
        fill: url(#Dégradé_sans_nom_229);
      }

      .cls-5 {
        fill: url(#Dégradé_sans_nom_231);
      }

      .cls-6 {
        fill: url(#Dégradé_sans_nom_236);
      }
    </style>
    <linearGradient id="Dégradé_sans_nom_229" data-name="Dégradé sans nom 229" x1="37.31" y1="256.6" x2="32.1" y2="212.64" gradientUnits="userSpaceOnUse">
      <stop offset="0" stop-color="#66bb93"/>
      <stop offset="1" stop-color="#8fcbb1"/>
    </linearGradient>
    <linearGradient id="Dégradé_sans_nom_207" data-name="Dégradé sans nom 207" x1="117.16" y1="212.55" x2="113.93" y2="282.57" gradientUnits="userSpaceOnUse">
      <stop offset="0" stop-color="#e889b6"/>
      <stop offset="1" stop-color="#e63187"/>
    </linearGradient>
    <linearGradient id="Dégradé_sans_nom_231" data-name="Dégradé sans nom 231" x1="39.3" y1="199.74" x2="76.31" y2="273.24" gradientUnits="userSpaceOnUse">
      <stop offset="0" stop-color="#66bb93"/>
      <stop offset=".56" stop-color="#37bce4"/>
    </linearGradient>
    <linearGradient id="Dégradé_sans_nom_236" data-name="Dégradé sans nom 236" x1="84.33" y1="258.56" x2="114.37" y2="201.2" gradientUnits="userSpaceOnUse">
      <stop offset=".06" stop-color="#88cfe7"/>
      <stop offset="1" stop-color="#e63187"/>
    </linearGradient>
    <linearGradient id="Dégradé_sans_nom_229-2" data-name="Dégradé sans nom 229" x1="25.66" y1="274.54" x2="45.7" y2="274.54" xlink:href="#Dégradé_sans_nom_229"/>
  </defs>
  <path class="cls-3" d="m46.35,236.96v11.11c0,5.86-4.8,10.68-10.68,10.68s-10.67-4.82-10.67-10.68v-37.1c1.13-1.17,2.71-1.91,4.46-1.91,2.3,0,4.31,1.26,5.39,3.12.18.34.34.67.46,1.03l11.04,23.76Z"/>
  <path class="cls-1" d="m104.48,236.96v37.68c0,5.88,4.8,10.68,10.68,10.68s10.67-4.8,10.67-10.68v-63.68c-1.13-1.17-2.72-1.9-4.47-1.9-2.3,0-4.31,1.25-5.38,3.12l-.47,1.02-11.04,23.77Z"/>
  <path class="cls-5" d="m91.72,264.23l-3.94,8.42v.02c-1.28,2.21-2.87,4.19-5.06,5.62-1.62,1.06-3.63,1.69-5.55,1.92-.18.03-.36.04-.54.06-.2.02-.41.03-.62.04-.22,0-.43.01-.63.01-.19,0-.37,0-.56-.01-.21,0-.41-.02-.62-.04-.18-.01-.36-.03-.54-.06-2.84-.34-5.41-1.54-7.47-3.33-1.65-1.43-2.9-3.42-3.81-5.39l-16.04-34.54-11.04-23.77c-.13-.36-.29-.69-.47-1.02-1.07-1.87-3.08-3.12-5.38-3.12-1.75,0-3.34.73-4.47,1.9v-3.36c0-5.7,4.7-10.07,9.95-11.46,4.82-1.28,10.15-.3,14.28,2.46,2.69,1.8,4.85,4.33,6.21,7.27l19.97,43,.03.07v.02c.93,1.98,1.87,3.94,2.74,5.94.85,1.93,1.76,3.87,3.13,5.49,1.24,1.46,2.84,2.6,4.6,3.33.89.37,1.83.63,2.79.79.93.15,2.06-.28,3-.26Z"/>
  <path class="cls-6" d="m125.83,207.59v3.36c-1.13-1.17-2.72-1.9-4.47-1.9-2.3,0-4.31,1.25-5.38,3.12-.18.32-.34.66-.47,1.02l-11.04,23.77-12.76,27.27c-.94-.02-2.07.41-3,.26-.96-.15-1.9-.42-2.79-.79-1.76-.73-3.36-1.87-4.6-3.33-1.38-1.62-2.28-3.56-3.13-5.49-.88-2-1.81-3.96-2.74-5.94v-.02s19.93-43.07,19.93-43.07c1.36-2.93,3.52-5.47,6.21-7.27,4.13-2.76,9.46-3.73,14.28-2.46,5.25,1.39,9.95,5.76,9.95,11.46Z"/>
  <path class="cls-4" d="m201.59,222.89c-.16-11.07-5.14-12.17-6.79-12.53-1.01-.21-2.16-.35-3.38-.39-3.42.11-6.06,1.49-7.97,4.25l-1.1,1.61-1.51-1.26c-2.62-2.21-5.72-3.72-9.21-4.48-1.63-.35-3.38-.55-5.17-.55-.18,0-.34.02-.51.02-7.09.11-13.39,2.64-18.75,7.53-5.42,4.94-9.04,11.39-10.74,19.14-.67,3.1-1.01,6.31-.99,9.55.16,8.82,2.53,16.55,7.05,22.89,4.46,6.27,10.35,10.24,17.45,11.8,2.2.48,4.48.71,6.8.66,5.65-.02,10.44-1.86,14.67-5.6l1.58-1.4,1.1,1.81c1.31,2.13,3.05,3.4,5.33,3.92.9.19,1.82.27,2.83.28,2.64,0,4.7-.57,6.2-1.68,1.52-1.13,2.52-2.85,3.03-5.19.35-1.56.51-3.65.53-6.22l-.46-44.15Zm-20.8,27.78c-.81,3.69-2.43,6.59-4.8,8.66-2,1.9-4.34,2.85-7,2.85-.85,0-1.74-.11-2.64-.3-3.24-.71-5.83-2.68-7.67-5.81-1.75-2.99-2.68-6.5-2.71-10.45.05-1.91.27-3.74.64-5.46.8-3.67,2.45-6.66,4.89-8.93,2.62-2.43,5.85-3.24,9.59-2.41,3.15.69,5.69,2.66,7.53,5.86,1.75,3.01,2.64,6.59,2.68,10.61.04,1.9-.14,3.72-.5,5.37Z"/>
  <path class="cls-4" d="m276.89,221.37c.02-2.8-.69-5.12-2.16-7.16-1.44-1.97-3.31-3.19-5.72-3.74-.73-.16-1.56-.25-2.43-.19-3.77.05-6.48,1.42-8.31,4.15l-1.13,1.68-1.52-1.33c-2.45-2.18-5.53-3.69-9.18-4.48-1.72-.39-3.47-.57-5.19-.57-7.46.09-13.96,2.75-19.31,7.9-5.01,4.82-8.4,11.13-10.08,18.73-2.07,9.28-1.29,18.37,2.29,27.04,4,9.6,10.24,15.24,19.1,17.19,2.13.48,4.43.74,6.84.8,5.71-.05,10.29-1.36,13.54-3.86l3.97-3.07-1.17,4.87c-.99,4.2-4.11,9.21-13.24,9.23-1.9.04-3.93-.19-5.97-.66-1.88-.43-4.27-1.19-7.32-2.34-2.83-1.08-4.87-1.77-6.08-2.04-1.05-.23-2.04-.35-2.96-.35-1.9-.02-3.56.74-5.16,2.36-1.67,1.65-2.71,3.45-3.14,5.37-.82,3.63,1.22,6.8,6.24,9.69,3.65,2.2,8.2,3.92,13.55,5.1,3.79.83,7.02,1.24,9.6,1.15,9.04-.02,16.71-2.16,22.82-6.34,6.02-4.13,9.96-10.15,11.68-17.9.67-2.98.97-6.18.9-9.53l-.46-51.7Zm-20.82,29.78c-.82,3.67-2.45,6.56-4.82,8.54-2.11,1.77-4.46,2.66-7.07,2.66-.9,0-1.82-.11-2.76-.32-6.63-1.47-9.99-7.05-10.03-16.6-.07-1.7.09-3.44.46-5.12.8-3.58,2.41-6.48,4.8-8.63,2.66-2.6,5.94-3.51,9.69-2.68,3.24.71,5.81,2.73,7.64,5.97,1.74,3.08,2.59,6.75,2.57,10.93.05,1.79-.11,3.58-.48,5.24Z"/>
  <path class="cls-4" d="m348.03,228.17c-1.33-5.83-4.16-10.28-8.7-13.61-4.5-3.33-9.98-5-16.26-5-2.68-.04-5.09.18-7.19.66-3.1.71-5.78,1.95-7.92,3.67l-1.4,1.12-1.1-1.42c-2.45-3.1-5.79-4.11-10.26-3.1-2.34.53-4.16,1.74-5.6,3.7-1.47,2-2.2,4.36-2.23,7.25l-.09,47.57c.02,1.03.16,2.13.39,3.21.57,2.45,1.7,4.38,3.47,5.86,1.74,1.49,3.81,2.2,6.38,2.2.87.04,1.67-.04,2.46-.23,2.34-.53,4.16-1.75,5.58-3.74,1.47-2.06,2.21-4.41,2.25-7.21l.02-31.15c.05-7.39,4.11-9.85,7.49-10.63.97-.21,1.91-.32,2.85-.32,1.75,0,3.42.39,4.98,1.19,2.5,1.28,4.11,3.4,4.78,6.34.25,1.1.37,2.29.37,3.51l-.18,31.08c.04,1.08.16,2.18.39,3.19.57,2.46,1.72,4.38,3.51,5.86,1.79,1.47,3.86,2.2,6.36,2.21h.02c.87.02,1.7-.07,2.43-.23,2.41-.55,4.29-1.77,5.72-3.72,1.47-1.98,2.14-4.34,2.11-7.18l.19-34.3c-.05-2.36-.34-4.66-.83-6.79Z"/>
  <path class="cls-4" d="m417.7,251.59c3.47-.48,5.56-2.13,6.5-5.09.37-1.22.55-2.62.51-4.18-.12-6.59-2.37-12.9-6.68-18.78-4.52-6.29-10.26-10.56-17.12-12.74-3.1-.97-6.38-1.47-9.74-1.47h-.76c-7.25.16-13.77,2.57-19.4,7.18-5.21,4.32-8.98,10.01-11.16,16.9-1.29,4.13-1.9,8.36-1.75,12.62.19,8.01,2.41,15.08,6.57,21,4.16,5.9,9.76,10.01,16.69,12.19,3.88,1.24,8.06,1.81,12.38,1.68,6.09-.14,12.23-1.65,18.2-4.5,6.43-2.98,10.28-6.41,11.5-10.22.69-2.21.44-4.38-.8-6.57-1.02-1.81-2.59-3.35-4.53-4.16-1.38-.58-2.89-.65-4.34-.36-2.12.42-4.01,1.55-5.86,2.62-.43.25-.87.5-1.3.75-4.55,2.64-8.36,3.99-11.68,4.09-2.39.09-4.61-.19-6.61-.81-3.69-1.17-6.38-3.35-7.99-6.47l-1.29-2.5,33.11-.92c2.6-.08,3.64-.12,5.55-.25Zm-39.3-13.45l.82-2.39c1.9-5.71,5.95-8.79,11.75-8.95h.05c1.56.02,3.03.23,4.38.66,3.7,1.17,6.29,3.77,7.74,7.72l.85,2.32-25.58.64Z"/>
  <path class="cls-4" d="m474.57,218.99c-.73-2.75-2.41-5.88-8.82-5.67l-4.68.32-.27-10.42c-.04-.92-.19-1.9-.43-2.85-.62-2.32-1.72-4.09-3.37-5.42-1.61-1.28-3.51-1.88-5.86-1.79-.85,0-1.59.09-2.27.27-2.16.57-3.79,1.72-5,3.54-1.28,1.93-1.86,4.15-1.82,6.77l.27,10.4-3.58-.09c-.66.05-1.31.16-1.97.34-1.82.48-3.28,1.44-4.41,2.92-1.12,1.49-1.63,3.19-1.58,5.19.02.87.12,1.65.32,2.41,1.05,4.02,3.54,5.78,8.08,5.69l3.63-.41,1.03,41.11c.05.94.19,1.91.44,2.85.58,2.23,1.68,3.99,3.38,5.33,1.65,1.31,3.54,1.97,5.76,1.9.83-.09,1.59-.21,2.3-.41,2.18-.57,3.86-1.72,5.1-3.54,1.31-1.88,1.91-4.09,1.84-6.77l-1.12-40.79,4.61.04c.97-.05,1.9-.18,2.71-.41,4.29-1.1,6.18-3.6,6.11-8.06-.11-.9-.25-1.74-.43-2.45Z"/>
  <circle class="cls-2" cx="35.68" cy="274.54" r="10.02"/>
</svg>