<?xml version="1.0" encoding="UTF-8"?>
<svg id="Calque_1" data-name="Calque 1" xmlns="http://www.w3.org/2000/svg" viewBox="0 0 500 200">
  <defs>
    <style>
      .cls-1 {
        fill: #fff;
        stroke-width: 0px;
      }
    </style>
  </defs>
  <path class="cls-1" d="m24.97,91.09v8.03c0,4.24-3.47,7.72-7.72,7.72s-7.71-3.48-7.71-7.72v-26.8c.82-.84,1.96-1.38,3.23-1.38,1.66,0,3.11.91,3.89,2.25.13.24.24.49.33.74l7.97,17.16Z"/>
  <path class="cls-1" d="m66.96,91.09v27.22c0,4.25,3.47,7.72,7.72,7.72s7.71-3.47,7.71-7.72v-46.01c-.82-.84-1.96-1.37-3.23-1.37-1.66,0-3.11.9-3.89,2.25l-.34.73-7.97,17.17Z"/>
  <path class="cls-1" d="m57.75,110.79l-2.85,6.08h0c-.92,1.61-2.07,3.04-3.65,4.07-1.17.77-2.62,1.22-4.01,1.39-.13.02-.26.03-.39.04-.15.01-.3.02-.44.03-.16,0-.31,0-.46,0-.14,0-.27,0-.4,0-.15,0-.3-.01-.44-.03-.13,0-.26-.02-.39-.04-2.05-.24-3.91-1.11-5.4-2.4-1.19-1.03-2.1-2.47-2.75-3.89l-11.59-24.95-7.97-17.17c-.09-.26-.21-.5-.34-.73-.77-1.35-2.22-2.25-3.89-2.25-1.27,0-2.41.53-3.23,1.37v-2.43c0-4.12,3.39-7.28,7.19-8.28,3.48-.92,7.34-.22,10.32,1.77,1.94,1.3,3.5,3.13,4.49,5.25l14.43,31.06.02.05h0c.66,1.44,1.34,2.86,1.98,4.3.61,1.39,1.27,2.8,2.26,3.97.89,1.05,2.05,1.88,3.32,2.4.65.27,1.32.46,2.02.57.67.11,1.49-.2,2.17-.19Z"/>
  <path class="cls-1" d="m82.39,69.87v2.43c-.82-.84-1.96-1.37-3.23-1.37-1.66,0-3.11.9-3.89,2.25-.13.23-.25.48-.34.73l-7.97,17.17-9.21,19.7c-.68-.01-1.49.29-2.17.19-.69-.11-1.37-.3-2.02-.57-1.27-.53-2.43-1.35-3.32-2.4-.99-1.17-1.65-2.57-2.26-3.97-.63-1.44-1.31-2.86-1.98-4.29h0s14.4-31.13,14.4-31.13c.99-2.12,2.54-3.95,4.49-5.25,2.98-1.99,6.84-2.7,10.32-1.77,3.8,1,7.19,4.16,7.19,8.28Z"/>
  <path class="cls-1" d="m137.12,80.92c-.12-8-3.71-8.79-4.9-9.05-.73-.15-1.56-.26-2.44-.28-2.47.08-4.38,1.08-5.76,3.07l-.79,1.16-1.09-.91c-1.89-1.6-4.13-2.69-6.66-3.24-1.18-.26-2.44-.4-3.74-.4-.13,0-.24.01-.37.01-5.12.08-9.68,1.91-13.54,5.44-3.92,3.57-6.53,8.23-7.76,13.82-.49,2.24-.73,4.56-.72,6.9.12,6.37,1.83,11.95,5.09,16.54,3.23,4.53,7.48,7.4,12.61,8.52,1.59.35,3.24.51,4.92.47,4.08-.01,7.54-1.34,10.6-4.04l1.14-1.01.79,1.31c.95,1.54,2.2,2.46,3.85,2.83.65.14,1.32.19,2.05.2,1.91,0,3.39-.41,4.48-1.22,1.1-.82,1.82-2.06,2.19-3.75.26-1.13.37-2.64.38-4.49l-.33-31.9Zm-15.03,20.07c-.59,2.66-1.75,4.76-3.47,6.26-1.45,1.37-3.14,2.06-5.06,2.06-.61,0-1.25-.08-1.91-.22-2.34-.51-4.21-1.93-5.54-4.2-1.27-2.16-1.93-4.7-1.96-7.55.04-1.38.19-2.7.46-3.94.58-2.65,1.77-4.81,3.53-6.45,1.89-1.75,4.22-2.34,6.92-1.74,2.28.5,4.11,1.92,5.44,4.24,1.27,2.18,1.91,4.76,1.93,7.67.03,1.37-.1,2.69-.36,3.88Z"/>
  <path class="cls-1" d="m191.52,79.82c.01-2.02-.5-3.7-1.56-5.17-1.04-1.42-2.39-2.3-4.13-2.7-.52-.12-1.13-.18-1.75-.14-2.73.04-4.68,1.02-6,3l-.82,1.22-1.1-.96c-1.77-1.57-3.99-2.66-6.63-3.24-1.24-.28-2.51-.41-3.75-.41-5.39.06-10.09,1.98-13.95,5.71-3.62,3.48-6.07,8.04-7.28,13.53-1.5,6.71-.93,13.27,1.65,19.53,2.89,6.94,7.4,11.01,13.8,12.42,1.54.35,3.2.54,4.94.58,4.12-.04,7.44-.99,9.78-2.79l2.87-2.21-.84,3.52c-.72,3.03-2.97,6.66-9.56,6.67-1.37.03-2.84-.14-4.31-.47-1.36-.31-3.08-.86-5.29-1.69-2.05-.78-3.52-1.28-4.39-1.47-.76-.17-1.47-.26-2.14-.26-1.37-.01-2.57.54-3.72,1.7-1.2,1.19-1.96,2.5-2.27,3.88-.59,2.62.88,4.92,4.51,7,2.64,1.59,5.93,2.83,9.79,3.69,2.74.6,5.07.9,6.94.83,6.53-.01,12.07-1.56,16.49-4.58,4.35-2.98,7.19-7.33,8.44-12.93.49-2.15.7-4.47.65-6.89l-.33-37.35Zm-15.04,21.52c-.59,2.65-1.77,4.74-3.48,6.17-1.52,1.28-3.23,1.92-5.11,1.92-.65,0-1.32-.08-2-.23-4.79-1.06-7.22-5.09-7.24-11.99-.05-1.23.06-2.48.33-3.7.58-2.59,1.74-4.68,3.47-6.23,1.92-1.88,4.29-2.53,7-1.93,2.34.51,4.2,1.97,5.52,4.31,1.25,2.23,1.87,4.88,1.86,7.9.04,1.29-.08,2.59-.35,3.79Z"/>
  <path class="cls-1" d="m242.91,84.74c-.96-4.21-3.01-7.42-6.28-9.83-3.25-2.41-7.21-3.61-11.75-3.61-1.93-.03-3.67.13-5.2.47-2.24.51-4.17,1.41-5.72,2.65l-1.01.81-.79-1.02c-1.77-2.24-4.19-2.97-7.41-2.24-1.69.38-3.01,1.25-4.04,2.68-1.06,1.45-1.59,3.15-1.61,5.24l-.06,34.37c.01.74.12,1.54.28,2.32.41,1.77,1.23,3.16,2.51,4.24,1.25,1.08,2.75,1.59,4.61,1.59.63.03,1.2-.03,1.78-.17,1.69-.38,3.01-1.27,4.03-2.7,1.06-1.48,1.6-3.19,1.63-5.21v-22.5c.05-5.34,2.98-7.12,5.43-7.68.7-.15,1.38-.23,2.06-.23,1.27,0,2.47.28,3.6.86,1.8.92,2.97,2.46,3.46,4.58.18.79.27,1.65.27,2.53l-.13,22.45c.03.78.12,1.57.28,2.3.41,1.78,1.24,3.16,2.53,4.24,1.29,1.06,2.79,1.59,4.6,1.6h.01c.63.01,1.23-.05,1.75-.17,1.74-.4,3.1-1.28,4.13-2.69,1.06-1.43,1.55-3.14,1.52-5.18l.14-24.78c-.04-1.7-.24-3.37-.6-4.9Z"/>
  <path class="cls-1" d="m293.24,101.66c2.51-.35,4.02-1.54,4.7-3.67.27-.88.4-1.89.37-3.02-.09-4.76-1.72-9.32-4.83-13.57-3.26-4.54-7.41-7.63-12.36-9.2-2.24-.7-4.61-1.06-7.04-1.06h-.55c-5.24.12-9.95,1.86-14.02,5.18-3.76,3.12-6.49,7.23-8.06,12.21-.93,2.98-1.37,6.04-1.27,9.11.14,5.79,1.74,10.89,4.75,15.17,3.01,4.26,7.05,7.23,12.06,8.81,2.8.9,5.82,1.31,8.95,1.22,4.4-.1,8.83-1.19,13.15-3.25,4.65-2.15,7.42-4.63,8.31-7.39.5-1.6.32-3.16-.58-4.75-.74-1.31-1.87-2.42-3.27-3.01-.99-.42-2.09-.47-3.14-.26-1.53.31-2.89,1.12-4.23,1.89-.31.18-.63.36-.94.54-3.29,1.91-6.04,2.88-8.43,2.96-1.73.06-3.33-.14-4.77-.59-2.66-.84-4.61-2.42-5.77-4.67l-.93-1.8,23.92-.67c1.88-.06,2.63-.09,4.01-.18Zm-28.39-9.71l.59-1.73c1.37-4.12,4.3-6.35,8.49-6.46h.04c1.13.01,2.19.17,3.16.47,2.68.84,4.54,2.73,5.59,5.58l.61,1.68-18.48.46Z"/>
  <path class="cls-1" d="m334.32,78.11c-.52-1.98-1.74-4.25-6.37-4.1l-3.38.23-.19-7.53c-.03-.67-.14-1.37-.31-2.06-.45-1.68-1.24-2.96-2.43-3.92-1.16-.92-2.53-1.36-4.24-1.29-.61,0-1.15.06-1.64.19-1.56.41-2.74,1.24-3.61,2.56-.92,1.4-1.34,3-1.32,4.89l.19,7.51-2.59-.06c-.47.04-.95.12-1.42.24-1.32.35-2.37,1.04-3.19,2.11-.81,1.08-1.18,2.3-1.14,3.75.01.63.09,1.19.23,1.74.76,2.91,2.56,4.17,5.84,4.11l2.62-.29.74,29.7c.04.68.14,1.38.32,2.06.42,1.61,1.22,2.88,2.44,3.85,1.19.95,2.56,1.42,4.16,1.37.6-.06,1.15-.15,1.66-.29,1.57-.41,2.79-1.24,3.69-2.56.95-1.36,1.38-2.96,1.33-4.89l-.81-29.46,3.33.03c.7-.04,1.37-.13,1.96-.29,3.1-.79,4.47-2.6,4.42-5.82-.08-.65-.18-1.25-.31-1.77Z"/>
  <circle class="cls-1" cx="17.26" cy="118.24" r="7.24"/>
  <circle class="cls-1" cx="344.33" cy="118.24" r="7.24"/>
  <path class="cls-1" d="m413.12,71.9c-.79-.26-1.7-.4-2.71-.42-3.41.03-5.48,1.8-6.47,5.56-2.36,8.2-3.99,14.39-4.85,18.43l-1.2,5.61-7.58-23.33c-.97-3.07-2.45-4.89-4.53-5.59-.78-.26-1.66-.39-2.6-.39-3.63.03-5.84,1.95-6.95,6.07-2.4,7.95-4.05,13.94-4.93,17.84l-1.25,5.58-7.47-23.78c-.84-2.7-2.28-4.36-4.42-5.06-.73-.25-1.46-.37-2.21-.37-1.03,0-2.09.23-3.19.68-1.83.76-2.98,1.88-3.5,3.45-.18.53-.25,1.06-.2,1.63v.13c-.01,1.52.45,3.6,1.38,6.16l11.07,30.19c1.21,3.5,3.01,5.59,5.5,6.42.82.28,1.74.4,2.74.37,4.21-.05,6.7-2.07,7.92-6.33,1.94-6.41,3.33-11.37,4.09-14.77l1.21-5.36,6.67,19.92c1,3.15,2.67,5.06,5.1,5.87.87.3,1.82.43,2.82.4,3.98,0,6.65-2.25,8.19-6.89l10.6-30.69c1.03-3.11,1.18-4.4,1.17-4.9-.01-3.39-1.41-5.41-4.4-6.42Z"/>
  <path class="cls-1" d="m485.85,74.08h-3.24l-.16-4.39c-.06-2.41,1.2-3.9,3.36-4.02,2-.05,3.42-.55,4.3-1.47.9-.94,1.32-2.47,1.27-4.53-.06-1.75-.56-3.06-1.56-3.99-1.47-1.37-4.08-2.02-7.75-1.88-4.14.08-7.32,1.43-9.74,4.12-2.44,2.71-3.56,6.27-3.43,10.89l.09,5.85-2.16-.09c-1.69.09-3.05.71-4.16,1.89-1.13,1.18-1.63,2.58-1.56,4.28.04,1.91.6,3.33,1.72,4.37,1.13,1.04,2.55,1.53,4.35,1.5l2.18-.21.82,28c.07,2.21.74,3.96,2.06,5.34,1.26,1.33,2.85,1.94,4.88,1.9,2.03-.06,3.6-.78,4.81-2.2,1.25-1.46,1.82-3.24,1.76-5.45l-.73-27.79,3.25-.15c2.02-.05,3.64-.59,4.95-1.66,1.19-.97,1.76-2.47,1.75-4.57-.08-2.73-.97-5.85-7.06-5.73Z"/>
  <path class="cls-1" d="m455,78.11c-.52-1.98-1.74-4.25-6.37-4.1l-3.38.23-.19-7.53c-.03-.67-.14-1.37-.31-2.06-.45-1.68-1.24-2.96-2.43-3.92-1.16-.92-2.53-1.36-4.24-1.29-.61,0-1.15.06-1.64.19-1.56.41-2.74,1.24-3.61,2.56-.92,1.4-1.34,3-1.32,4.89l.19,7.51-2.59-.06c-.47.04-.95.12-1.42.24-1.32.35-2.37,1.04-3.19,2.11-.81,1.08-1.18,2.3-1.14,3.75.01.63.09,1.19.23,1.74.76,2.91,2.56,4.17,5.84,4.11l2.62-.29.74,29.7c.04.68.14,1.38.32,2.06.42,1.61,1.22,2.88,2.44,3.85,1.19.95,2.56,1.42,4.16,1.37.6-.06,1.15-.15,1.66-.29,1.57-.41,2.79-1.24,3.69-2.56.95-1.36,1.38-2.96,1.33-4.89l-.81-29.46,3.33.03c.7-.04,1.37-.13,1.96-.29,3.1-.79,4.47-2.6,4.42-5.82-.08-.65-.18-1.25-.31-1.77Z"/>
</svg>